# xmcd
#
# Track frame offsets: 
#        150
#        17472
#        44670
#        61412
#        73722
#        87677
#        105505
#        119782
#        135787
#        155405
#        174035
#        194830
#        211457
#        231627
#        251037
#        276490
#        296955
#        313640
#        344986
#
# Disc length: 4607 seconds
#
# Revision: 1
# Processed by: cddbd v1.5.2PL0 Copyright (c) Steve Scherf et al.
# Submitted via: ExactAudioCopy v1.0b3
#
DISCID=3811fd13
DTITLE=Various Artist - This is New Age
DYEAR=2003
DGENRE=New Age
TTITLE0=Adagio In C Minor - Yanni
TTITLE1=Cristofori's Dream - David Lanz
TTITLE2=Epilogue - Ryuichi Sakamoto
TTITLE3=Gene [Violin, Cello] - Joe Hisaishi
TTITLE4=Beloved - Michael Hoppe
TTITLE5=La Califa - Kentaro Haneda
TTITLE6=Remembering You - Robin Spielberg
TTITLE7=Morning's Light - John Mills
TTITLE8=Spring Shower - Mia Jang
TTITLE9=Virtue - Jesse Cook
TTITLE10=Whisper from The Mirror - Keiko Matsui
TTITLE11=Keep The Aspidistra Flying "Main Title" - Mike Batt
TTITLE12=First Love [TV Instrumental] "Reasonless Love" - Ken Shima
TTITLE13=Miracle - Madredeus
TTITLE14=Change We Must - Jon Anderson
TTITLE15=Under The Canopy - David Arkenstone
TTITLE16=Open Arms - Jonathan Cain
TTITLE17=Love Life - Warren Hill
TTITLE18=Caption
EXTD=YEAR: 2003
EXTT0=
EXTT1=
EXTT2=
EXTT3=
EXTT4=
EXTT5=
EXTT6=
EXTT7=
EXTT8=
EXTT9=
EXTT10=
EXTT11=
EXTT12=
EXTT13=
EXTT14=
EXTT15=
EXTT16=
EXTT17=
EXTT18=
PLAYORDER=
